<svg data-v-0dd9719b="" version="1.0" xmlns="http://www.w3.org/2000/svg" xmlns:xlink="http://www.w3.org/1999/xlink" width="100%" height="100%" viewBox="0 0 340.000000 250.000000" preserveAspectRatio="xMidYMid meet" color-interpolation-filters="sRGB" style="margin: auto;"> <rect data-v-0dd9719b="" x="0" y="0" width="100%" height="100%" fill="#ffffff" fill-opacity="1" class="background"></rect> <rect data-v-0dd9719b="" x="0" y="0" width="100%" height="100%" fill="url(#watermark)" fill-opacity="1" class="watermarklayer"></rect> <g data-v-0dd9719b="" fill="#41b883" class="icon-text-wrapper icon-svg-group iconsvg" transform="translate(44.474998474121094,102.46783447265625)"><g class="iconsvg-imagesvg" transform="translate(0,0)"><g><rect fill="#41b883" fill-opacity="0" stroke-width="2" x="0" y="0" width="60" height="45.064329330118746" class="image-rect"></rect> <svg filter="url(#colors3110436757)" x="0" y="0" width="60" height="45.064329330118746" filtersec="colorsf4535596286" class="image-svg-svg primary" style="overflow: visible;"><svg xmlns="http://www.w3.org/2000/svg" viewBox="-6.411945605577785e-7 -0.05752519145607948 57.06022644042969 42.8564338684082"><g><g fill="#000000"><path d="M57.06 5.71a4.24 4.24 0 0 0-1.26-3.06 4.4 4.4 0 0 0-5.35-.6l-.11.07a3.78 3.78 0 0 0-.63.52L39.5 12.84a.41.41 0 0 1-.07.11c-2.37 2.41-3.48 4.83-3.28 7.2a4.94 4.94 0 0 0 .14.87v.19a8.16 8.16 0 0 0 .24.79.93.93 0 0 1 .05.1c.09.22.19.44.29.65l.08.15a6.67 6.67 0 0 0 .37.64l.07.11c.12.18.25.35.37.51l.06.08c.14.17.27.33.41.48l.07.08.36.38.32.3L55.8 8.75a4.23 4.23 0 0 0 1.26-3.04z"></path><path d="M47.44 35.54l-.12-.13-8.67-8.66A10.07 10.07 0 0 1 35 21c0-.24-.08-.48-.1-.73a8.1 8.1 0 0 1 .4-3.22L26 26.33l15.22 15.2a4.3 4.3 0 0 0 6.1 0 4.32 4.32 0 0 0 .12-5.99zM17.56 30a.42.42 0 0 1 .08-.12c.29-.3.57-.6.83-.9.07-.09.12-.17.19-.25s.36-.44.52-.66.16-.25.24-.37.24-.35.35-.53a3.84 3.84 0 0 0 .18-.35l.29-.55c.05-.1.08-.21.12-.31s.17-.39.23-.59a2.46 2.46 0 0 0 .07-.29 6.06 6.06 0 0 0 .16-.61 2.66 2.66 0 0 0 0-.28c0-.21.07-.41.08-.61s0-.22 0-.32a5.42 5.42 0 0 0 0-.57 5.93 5.93 0 0 0-.13-.86v-.2a5.62 5.62 0 0 0-.23-.76l-.08-.18c-.07-.19-.16-.37-.24-.54l-.12-.24c-.11-.19-.21-.38-.33-.55a2.33 2.33 0 0 0-.17-.26l-.21-.3-.27-.34a3.23 3.23 0 0 0-.23-.27l-.21-.24-.14-.15-.32-.3-.11-.11-.11-.11L1.26 34.05a4.27 4.27 0 0 0-1.26 3 4.34 4.34 0 0 0 1.26 3.06 4.41 4.41 0 0 0 5.35.6.42.42 0 0 1 .14-.09 4.08 4.08 0 0 0 .62-.51z"></path><path d="M18.41 16.05a10 10 0 0 1 3.64 5.78c0 .23.07.48.09.73a7.89 7.89 0 0 1-.4 3.21l9.3-9.3L15.83 1.26a4.31 4.31 0 0 0-6.21 6 .47.47 0 0 1 .13.15z"></path></g></g></svg></svg> <defs><filter id="colors3110436757"><feColorMatrix type="matrix" values="0 0 0 0 0.20703125  0 0 0 0 0.28515625  0 0 0 0 0.3671875  0 0 0 1 0" class="icon-fecolormatrix"></feColorMatrix></filter> <filter id="colorsf4535596286"><feColorMatrix type="matrix" values="0 0 0 0 0.99609375  0 0 0 0 0.99609375  0 0 0 0 0.99609375  0 0 0 1 0" class="icon-fecolormatrix"></feColorMatrix></filter> <filter id="colorsb2224267736"><feColorMatrix type="matrix" values="0 0 0 0 0  0 0 0 0 0  0 0 0 0 0  0 0 0 1 0" class="icon-fecolormatrix"></feColorMatrix></filter></defs></g></g> <g transform="translate(67,7.322165489196777)"><g data-gra="path-name" fill-rule="" class="tp-name iconsvg-namesvg"><g transform="scale(1)"><g><path d="M14.07-29.58L18.03-20.26 25.16-29.58 30.75-29.58 19.7-16.3 26.65 0 15.14 0 11.18-9.27 4.01 0-1.58 0 9.41-13.46 2.56-29.58 14.07-29.58ZM44.44-29.58L38.11 0 28.04 0 34.33-29.58 44.44-29.58ZM74.44-29.58L68.06 0 57.16 0 51.99-21.38 47.42 0 43.23 0 49.52-29.58 60.65-29.58 65.54-7.92 70.16-29.58 74.44-29.58ZM95.82-29.58L99.04 0 88.14 0 87.48-7.41 78.87-7.41 75.56 0 71.04 0 84.78-29.58 95.82-29.58ZM86.09-23.48L80.4-10.81 87.16-10.81 86.09-23.48ZM114.08-12.76L116.23-12.76Q117.62-12.76 118.58-13.93 119.53-15.09 120.16-16.77 120.79-18.45 121.07-20.26 121.35-22.08 121.35-23.43L121.35-23.43Q121.35-24.69 120.93-25.55 120.51-26.41 119.11-26.41L119.11-26.41 117.02-26.41 114.08-12.76ZM116.09-9.78L113.43-9.78 111.34 0 101.27 0 107.56-29.58 118.32-29.58Q120.98-29.58 123.17-29.3 125.36-29.02 126.94-28.18 128.52-27.34 129.41-25.78 130.3-24.22 130.3-21.61L130.3-21.61Q130.3-19.19 129.53-17.03 128.76-14.86 127.06-13.25 125.36-11.65 122.66-10.71 119.95-9.78 116.09-9.78L116.09-9.78ZM155.31-21.01L147.58-21.01Q147.72-21.71 147.72-22.92L147.72-22.92Q147.72-23.62 147.62-24.29 147.53-24.97 147.3-25.5 147.07-26.04 146.6-26.34 146.13-26.65 145.39-26.65L145.39-26.65Q144.55-26.65 143.85-26.27 143.15-25.9 142.62-25.32 142.08-24.74 141.78-23.97 141.48-23.2 141.48-22.36L141.48-22.36Q141.48-21.15 142.1-20.5 142.73-19.84 143.76-19.43 144.78-19.01 146.09-18.73 147.39-18.45 148.79-18.07L148.79-18.07Q149.95-17.75 151.12-17.24 152.28-16.72 153.19-15.86 154.1-15 154.66-13.63 155.22-12.25 155.22-10.2L155.22-10.2Q155.22-7.27 154.05-5.26 152.89-3.26 150.84-2 148.79-0.75 145.97-0.19 143.15 0.37 139.84 0.37L139.84 0.37Q136.49 0.37 134.37-0.07 132.25-0.51 131.04-1.02L131.04-1.02Q129.6-1.63 128.9-2.42L128.9-2.42 130.48-8.8 138.68-8.8Q138.63-8.39 138.59-7.66 138.54-6.94 138.54-6.52L138.54-6.52Q138.54-5.96 138.68-5.36 138.82-4.75 139.12-4.24 139.43-3.73 139.98-3.4 140.54-3.07 141.38-3.07L141.38-3.07Q142.31-3.07 143.04-3.49 143.76-3.91 144.25-4.54 144.74-5.17 144.99-5.94 145.25-6.71 145.25-7.45L145.25-7.45Q145.25-8.48 144.76-9.18 144.27-9.88 143.43-10.36 142.59-10.85 141.5-11.2 140.4-11.55 139.24-11.93L139.24-11.93Q138.12-12.25 136.89-12.72 135.65-13.18 134.63-14.02 133.6-14.86 132.93-16.14 132.25-17.42 132.25-19.43L132.25-19.43Q132.25-22.41 133.77-24.43 135.28-26.46 137.59-27.72 139.89-28.98 142.64-29.51 145.39-30.05 147.86-30.05L147.86-30.05Q151.12-30.05 153.47-29.28 155.82-28.51 157.03-27.48L157.03-27.48 155.31-21.01ZM156.57 0L162.86-29.58 182.47-29.58 181.72-26.04 172.22-26.04 170.26-17.05 178.23-17.05 177.48-13.56 169.52-13.56 167.38-3.59 176.88-3.59 176.18 0 156.57 0Z" transform="translate(1.5799999237060547, 30.049999237060547)"></path></g> <!----> <!----> <!----> <!----> <!----> <!----> <!----></g></g> <!----></g></g><defs v-gra="od"></defs></svg>